<mxfile host="app.diagrams.net" modified="2021-07-02T10:09:23.564Z" agent="5.0 (X11; Linux x86_64) AppleWebKit/537.36 (KHTML, like Gecko) Chrome/90.0.4430.93 Safari/537.36" etag="LFrV0vlrVoJoJod5fj3s" version="14.8.2" type="github">
  <diagram id="GXnI0iMTj2cHC1lOnszO" name="Page-1">
    <mxGraphModel dx="1862" dy="594" grid="1" gridSize="10" guides="1" tooltips="1" connect="1" arrows="1" fold="1" page="1" pageScale="1" pageWidth="827" pageHeight="1169" math="0" shadow="0">
      <root>
        <mxCell id="0" />
        <mxCell id="1" parent="0" />
        <mxCell id="cipxp8mLIuf8oXB83tIg-4" value="" style="rounded=0;whiteSpace=wrap;html=1;align=left;" vertex="1" parent="1">
          <mxGeometry x="1241" y="130" width="610" height="440" as="geometry" />
        </mxCell>
        <mxCell id="vF5ghhq5Yg48Jj5as7LA-7" value="" style="rounded=0;whiteSpace=wrap;html=1;" parent="1" vertex="1">
          <mxGeometry x="540" y="110" width="410" height="450" as="geometry" />
        </mxCell>
        <mxCell id="vF5ghhq5Yg48Jj5as7LA-6" value="" style="rounded=0;whiteSpace=wrap;html=1;" parent="1" vertex="1">
          <mxGeometry x="-80" y="100" width="410" height="460" as="geometry" />
        </mxCell>
        <mxCell id="vF5ghhq5Yg48Jj5as7LA-2" value="&lt;pre style=&quot;background-color: rgb(255 , 255 , 255) ; font-family: &amp;#34;jetbrains mono&amp;#34; , monospace ; font-size: 9.8pt&quot;&gt;control_manager&lt;/pre&gt;" style="text;html=1;align=center;verticalAlign=middle;resizable=0;points=[];autosize=1;strokeColor=none;" parent="1" vertex="1">
          <mxGeometry x="65" y="100" width="120" height="50" as="geometry" />
        </mxCell>
        <mxCell id="JdYMFB5UEBQZJn8opRw6-7" style="rounded=0;orthogonalLoop=1;jettySize=auto;html=1;entryX=0;entryY=0.5;entryDx=0;entryDy=0;" parent="1" source="vF5ghhq5Yg48Jj5as7LA-3" target="JdYMFB5UEBQZJn8opRw6-5" edge="1">
          <mxGeometry relative="1" as="geometry" />
        </mxCell>
        <mxCell id="JdYMFB5UEBQZJn8opRw6-15" style="edgeStyle=none;rounded=0;orthogonalLoop=1;jettySize=auto;html=1;entryX=0;entryY=0.5;entryDx=0;entryDy=0;" parent="1" source="vF5ghhq5Yg48Jj5as7LA-3" target="JdYMFB5UEBQZJn8opRw6-14" edge="1">
          <mxGeometry relative="1" as="geometry" />
        </mxCell>
        <mxCell id="JdYMFB5UEBQZJn8opRw6-89" style="edgeStyle=none;rounded=0;orthogonalLoop=1;jettySize=auto;html=1;" parent="1" source="vF5ghhq5Yg48Jj5as7LA-3" target="JdYMFB5UEBQZJn8opRw6-8" edge="1">
          <mxGeometry relative="1" as="geometry" />
        </mxCell>
        <mxCell id="vF5ghhq5Yg48Jj5as7LA-3" value="&lt;pre style=&quot;background-color: rgb(255 , 255 , 255) ; font-family: &amp;#34;jetbrains mono&amp;#34; , monospace ; font-size: 9.8pt&quot;&gt;control_msg_thread&lt;/pre&gt;" style="ellipse;whiteSpace=wrap;html=1;" parent="1" vertex="1">
          <mxGeometry x="185" y="170" width="135" height="80" as="geometry" />
        </mxCell>
        <mxCell id="JdYMFB5UEBQZJn8opRw6-46" style="edgeStyle=none;rounded=0;orthogonalLoop=1;jettySize=auto;html=1;" parent="1" source="vF5ghhq5Yg48Jj5as7LA-4" target="JdYMFB5UEBQZJn8opRw6-14" edge="1">
          <mxGeometry relative="1" as="geometry" />
        </mxCell>
        <mxCell id="JdYMFB5UEBQZJn8opRw6-91" style="edgeStyle=none;rounded=0;orthogonalLoop=1;jettySize=auto;html=1;entryX=1;entryY=0.5;entryDx=0;entryDy=0;" parent="1" source="vF5ghhq5Yg48Jj5as7LA-4" target="JdYMFB5UEBQZJn8opRw6-40" edge="1">
          <mxGeometry relative="1" as="geometry" />
        </mxCell>
        <mxCell id="vF5ghhq5Yg48Jj5as7LA-4" value="&lt;pre style=&quot;background-color: rgb(255 , 255 , 255) ; font-family: &amp;#34;jetbrains mono&amp;#34; , monospace ; font-size: 9.8pt&quot;&gt;show_msg_thread&lt;/pre&gt;" style="ellipse;whiteSpace=wrap;html=1;" parent="1" vertex="1">
          <mxGeometry x="185" y="310" width="120" height="80" as="geometry" />
        </mxCell>
        <mxCell id="JdYMFB5UEBQZJn8opRw6-63" style="edgeStyle=none;rounded=0;orthogonalLoop=1;jettySize=auto;html=1;entryX=0;entryY=0.5;entryDx=0;entryDy=0;" parent="1" source="vF5ghhq5Yg48Jj5as7LA-5" target="JdYMFB5UEBQZJn8opRw6-62" edge="1">
          <mxGeometry relative="1" as="geometry" />
        </mxCell>
        <mxCell id="JdYMFB5UEBQZJn8opRw6-92" style="edgeStyle=none;rounded=0;orthogonalLoop=1;jettySize=auto;html=1;" parent="1" source="vF5ghhq5Yg48Jj5as7LA-5" target="JdYMFB5UEBQZJn8opRw6-49" edge="1">
          <mxGeometry relative="1" as="geometry" />
        </mxCell>
        <mxCell id="vF5ghhq5Yg48Jj5as7LA-5" value="&lt;pre style=&quot;background-color: rgb(255 , 255 , 255) ; font-family: &amp;#34;jetbrains mono&amp;#34; , monospace ; font-size: 9.8pt&quot;&gt;serial_msg_thread&lt;/pre&gt;" style="ellipse;whiteSpace=wrap;html=1;" parent="1" vertex="1">
          <mxGeometry x="185" y="440" width="120" height="80" as="geometry" />
        </mxCell>
        <mxCell id="JdYMFB5UEBQZJn8opRw6-5" value="&lt;pre style=&quot;background-color: rgb(255 , 255 , 255) ; font-family: &amp;#34;jetbrains mono&amp;#34; , monospace ; font-size: 9.8pt&quot;&gt;&lt;span style=&quot;font-weight: bold&quot;&gt;g_work_info&lt;/span&gt;&lt;/pre&gt;" style="shape=process;whiteSpace=wrap;html=1;backgroundOutline=1;" parent="1" vertex="1">
          <mxGeometry x="559" y="180" width="150" height="60" as="geometry" />
        </mxCell>
        <mxCell id="JdYMFB5UEBQZJn8opRw6-6" style="rounded=0;orthogonalLoop=1;jettySize=auto;html=1;entryX=1;entryY=0.5;entryDx=0;entryDy=0;" parent="1" source="vF5ghhq5Yg48Jj5as7LA-8" target="JdYMFB5UEBQZJn8opRw6-5" edge="1">
          <mxGeometry relative="1" as="geometry" />
        </mxCell>
        <mxCell id="vF5ghhq5Yg48Jj5as7LA-13" value="100ms轮询" style="text;html=1;align=center;verticalAlign=middle;resizable=0;points=[];autosize=1;strokeColor=none;" parent="1" vertex="1">
          <mxGeometry x="730" y="325" width="80" height="20" as="geometry" />
        </mxCell>
        <mxCell id="JdYMFB5UEBQZJn8opRw6-8" value="&lt;pre style=&quot;background-color: rgb(255 , 255 , 255) ; font-family: &amp;#34;jetbrains mono&amp;#34; , monospace ; font-size: 9.8pt&quot;&gt;&lt;span style=&quot;font-weight: bold&quot;&gt;control_msg_queue&lt;/span&gt;&lt;/pre&gt;" style="shape=process;whiteSpace=wrap;html=1;backgroundOutline=1;" parent="1" vertex="1">
          <mxGeometry x="-60" y="180" width="170" height="60" as="geometry" />
        </mxCell>
        <mxCell id="JdYMFB5UEBQZJn8opRw6-10" value="mq_receive" style="text;html=1;align=center;verticalAlign=middle;resizable=0;points=[];autosize=1;strokeColor=none;" parent="1" vertex="1">
          <mxGeometry x="110" y="185" width="80" height="20" as="geometry" />
        </mxCell>
        <mxCell id="JdYMFB5UEBQZJn8opRw6-14" value="&lt;pre style=&quot;background-color: rgb(255 , 255 , 255) ; font-family: &amp;#34;jetbrains mono&amp;#34; , monospace ; font-size: 9.8pt&quot;&gt;&lt;span style=&quot;font-weight: bold&quot;&gt;g_showString_list&lt;/span&gt;&lt;/pre&gt;" style="shape=process;whiteSpace=wrap;html=1;backgroundOutline=1;" parent="1" vertex="1">
          <mxGeometry x="559" y="320" width="150" height="60" as="geometry" />
        </mxCell>
        <mxCell id="JdYMFB5UEBQZJn8opRw6-17" style="edgeStyle=none;rounded=0;orthogonalLoop=1;jettySize=auto;html=1;entryX=1;entryY=0.5;entryDx=0;entryDy=0;" parent="1" source="vF5ghhq5Yg48Jj5as7LA-8" target="JdYMFB5UEBQZJn8opRw6-14" edge="1">
          <mxGeometry relative="1" as="geometry" />
        </mxCell>
        <mxCell id="JdYMFB5UEBQZJn8opRw6-18" value="100ms轮询" style="text;html=1;align=center;verticalAlign=middle;resizable=0;points=[];autosize=1;strokeColor=none;rotation=45;" parent="1" vertex="1">
          <mxGeometry x="730" y="238" width="80" height="20" as="geometry" />
        </mxCell>
        <mxCell id="JdYMFB5UEBQZJn8opRw6-19" value="&lt;pre style=&quot;background-color: rgb(255 , 255 , 255) ; font-family: &amp;#34;jetbrains mono&amp;#34; , monospace&quot;&gt;&lt;span style=&quot;font-size: 11px&quot;&gt;直接覆盖&lt;/span&gt;&lt;/pre&gt;" style="text;html=1;align=center;verticalAlign=middle;resizable=0;points=[];autosize=1;strokeColor=none;rotation=0;" parent="1" vertex="1">
          <mxGeometry x="385" y="175" width="60" height="40" as="geometry" />
        </mxCell>
        <mxCell id="JdYMFB5UEBQZJn8opRw6-27" style="edgeStyle=none;rounded=0;orthogonalLoop=1;jettySize=auto;html=1;entryX=0;entryY=0.5;entryDx=0;entryDy=0;" parent="1" source="JdYMFB5UEBQZJn8opRw6-26" target="JdYMFB5UEBQZJn8opRw6-8" edge="1">
          <mxGeometry relative="1" as="geometry" />
        </mxCell>
        <mxCell id="JdYMFB5UEBQZJn8opRw6-41" style="edgeStyle=none;rounded=0;orthogonalLoop=1;jettySize=auto;html=1;entryX=0;entryY=0.5;entryDx=0;entryDy=0;" parent="1" source="JdYMFB5UEBQZJn8opRw6-26" target="JdYMFB5UEBQZJn8opRw6-40" edge="1">
          <mxGeometry relative="1" as="geometry" />
        </mxCell>
        <mxCell id="JdYMFB5UEBQZJn8opRw6-26" value="MyService" style="rounded=0;whiteSpace=wrap;html=1;" parent="1" vertex="1">
          <mxGeometry x="-440" y="180" width="120" height="60" as="geometry" />
        </mxCell>
        <mxCell id="JdYMFB5UEBQZJn8opRw6-29" value="&lt;pre style=&quot;background-color: rgb(255 , 255 , 255) ; font-family: &amp;#34;jetbrains mono&amp;#34; , monospace ; font-size: 9.8pt&quot;&gt;&lt;br&gt;&lt;/pre&gt;" style="text;html=1;align=center;verticalAlign=middle;resizable=0;points=[];autosize=1;strokeColor=none;" parent="1" vertex="1">
          <mxGeometry x="-255" y="170" width="20" height="50" as="geometry" />
        </mxCell>
        <mxCell id="JdYMFB5UEBQZJn8opRw6-32" style="edgeStyle=none;rounded=0;orthogonalLoop=1;jettySize=auto;html=1;entryX=0;entryY=0.5;entryDx=0;entryDy=0;" parent="1" source="JdYMFB5UEBQZJn8opRw6-31" target="JdYMFB5UEBQZJn8opRw6-26" edge="1">
          <mxGeometry relative="1" as="geometry" />
        </mxCell>
        <mxCell id="JdYMFB5UEBQZJn8opRw6-31" value="WorkManager" style="rounded=0;whiteSpace=wrap;html=1;" parent="1" vertex="1">
          <mxGeometry x="-730" y="180" width="120" height="60" as="geometry" />
        </mxCell>
        <mxCell id="JdYMFB5UEBQZJn8opRw6-33" value="&lt;pre style=&quot;background-color: rgb(255 , 255 , 255) ; font-family: &amp;#34;jetbrains mono&amp;#34; , monospace ; font-size: 9.8pt&quot;&gt;sendControlMsg&lt;/pre&gt;" style="text;html=1;align=center;verticalAlign=middle;resizable=0;points=[];autosize=1;strokeColor=none;" parent="1" vertex="1">
          <mxGeometry x="-590" y="175" width="110" height="50" as="geometry" />
        </mxCell>
        <mxCell id="JdYMFB5UEBQZJn8opRw6-36" value="" style="endArrow=none;dashed=1;html=1;" parent="1" edge="1">
          <mxGeometry width="50" height="50" relative="1" as="geometry">
            <mxPoint x="-480" y="600" as="sourcePoint" />
            <mxPoint x="-480" y="30" as="targetPoint" />
          </mxGeometry>
        </mxCell>
        <mxCell id="JdYMFB5UEBQZJn8opRw6-37" value="&lt;b&gt;PreControlServer&lt;/b&gt;" style="text;html=1;align=center;verticalAlign=middle;resizable=0;points=[];autosize=1;strokeColor=none;" parent="1" vertex="1">
          <mxGeometry x="-730" y="60" width="120" height="20" as="geometry" />
        </mxCell>
        <mxCell id="JdYMFB5UEBQZJn8opRw6-38" value="&lt;b&gt;ControlServer&lt;/b&gt;" style="text;html=1;align=center;verticalAlign=middle;resizable=0;points=[];autosize=1;strokeColor=none;" parent="1" vertex="1">
          <mxGeometry x="-445" y="60" width="100" height="20" as="geometry" />
        </mxCell>
        <mxCell id="JdYMFB5UEBQZJn8opRw6-40" value="&lt;pre style=&quot;background-color: rgb(255 , 255 , 255) ; font-family: &amp;#34;jetbrains mono&amp;#34; , monospace ; font-size: 9.8pt&quot;&gt;&lt;span style=&quot;font-weight: bold&quot;&gt;show_msg_queue&lt;/span&gt;&lt;/pre&gt;" style="shape=process;whiteSpace=wrap;html=1;backgroundOutline=1;" parent="1" vertex="1">
          <mxGeometry x="-50" y="320" width="150" height="60" as="geometry" />
        </mxCell>
        <mxCell id="JdYMFB5UEBQZJn8opRw6-42" value="&lt;pre style=&quot;background-color: rgb(255 , 255 , 255) ; font-family: &amp;#34;jetbrains mono&amp;#34; , monospace ; font-size: 9.8pt&quot;&gt;&lt;span style=&quot;font-style: italic&quot;&gt;CMD_TYPE_SHOW&lt;/span&gt;&lt;/pre&gt;" style="text;html=1;align=center;verticalAlign=middle;resizable=0;points=[];autosize=1;strokeColor=none;rotation=25;" parent="1" vertex="1">
          <mxGeometry x="-280" y="275" width="130" height="50" as="geometry" />
        </mxCell>
        <mxCell id="JdYMFB5UEBQZJn8opRw6-44" value="&lt;pre style=&quot;background-color: rgb(255 , 255 , 255) ; font-family: &amp;#34;jetbrains mono&amp;#34; , monospace ; font-size: 9.8pt&quot;&gt;&lt;span style=&quot;font-family: &amp;#34;helvetica&amp;#34; ; font-size: 12px ; background-color: rgb(248 , 249 , 250)&quot;&gt;mq_receive&lt;/span&gt;&lt;br&gt;&lt;/pre&gt;" style="text;html=1;align=center;verticalAlign=middle;resizable=0;points=[];autosize=1;strokeColor=none;" parent="1" vertex="1">
          <mxGeometry x="110" y="310" width="80" height="50" as="geometry" />
        </mxCell>
        <mxCell id="JdYMFB5UEBQZJn8opRw6-49" value="&lt;pre style=&quot;background-color: rgb(255 , 255 , 255) ; font-family: &amp;#34;jetbrains mono&amp;#34; , monospace ; font-size: 9.8pt&quot;&gt;&lt;span style=&quot;font-weight: bold&quot;&gt;serial_msg_queue&lt;/span&gt;&lt;/pre&gt;" style="shape=process;whiteSpace=wrap;html=1;backgroundOutline=1;" parent="1" vertex="1">
          <mxGeometry x="-55" y="445" width="155" height="60" as="geometry" />
        </mxCell>
        <mxCell id="JdYMFB5UEBQZJn8opRw6-51" value="&lt;span&gt;ADIL&lt;/span&gt;" style="text;html=1;align=center;verticalAlign=middle;resizable=0;points=[];autosize=1;strokeColor=none;" parent="1" vertex="1">
          <mxGeometry x="-570" y="220" width="40" height="20" as="geometry" />
        </mxCell>
        <mxCell id="JdYMFB5UEBQZJn8opRw6-52" value="" style="endArrow=none;dashed=1;html=1;" parent="1" edge="1">
          <mxGeometry width="50" height="50" relative="1" as="geometry">
            <mxPoint x="-820" y="380" as="sourcePoint" />
            <mxPoint x="-480" y="380" as="targetPoint" />
          </mxGeometry>
        </mxCell>
        <mxCell id="JdYMFB5UEBQZJn8opRw6-61" value="mq_receive" style="text;html=1;align=center;verticalAlign=middle;resizable=0;points=[];autosize=1;strokeColor=none;" parent="1" vertex="1">
          <mxGeometry x="110" y="455" width="80" height="20" as="geometry" />
        </mxCell>
        <mxCell id="JdYMFB5UEBQZJn8opRw6-62" value="&lt;pre style=&quot;background-color: rgb(255 , 255 , 255) ; font-family: &amp;#34;jetbrains mono&amp;#34; , monospace ; font-size: 9.8pt&quot;&gt;&lt;span style=&quot;font-weight: bold&quot;&gt;g_string_list&lt;/span&gt;&lt;/pre&gt;" style="shape=process;whiteSpace=wrap;html=1;backgroundOutline=1;" parent="1" vertex="1">
          <mxGeometry x="560" y="450" width="150" height="60" as="geometry" />
        </mxCell>
        <mxCell id="JdYMFB5UEBQZJn8opRw6-65" style="edgeStyle=none;rounded=0;orthogonalLoop=1;jettySize=auto;html=1;entryX=1;entryY=0.5;entryDx=0;entryDy=0;" parent="1" source="vF5ghhq5Yg48Jj5as7LA-8" target="JdYMFB5UEBQZJn8opRw6-62" edge="1">
          <mxGeometry relative="1" as="geometry" />
        </mxCell>
        <mxCell id="JdYMFB5UEBQZJn8opRw6-66" value="100ms轮询" style="text;html=1;align=center;verticalAlign=middle;resizable=0;points=[];autosize=1;strokeColor=none;rotation=-40;" parent="1" vertex="1">
          <mxGeometry x="730" y="407" width="80" height="20" as="geometry" />
        </mxCell>
        <mxCell id="JdYMFB5UEBQZJn8opRw6-74" value="数据库" style="whiteSpace=wrap;html=1;" parent="1" vertex="1">
          <mxGeometry x="1070" y="218" width="120" height="60" as="geometry" />
        </mxCell>
        <mxCell id="JdYMFB5UEBQZJn8opRw6-75" style="edgeStyle=none;rounded=0;orthogonalLoop=1;jettySize=auto;html=1;entryX=0;entryY=0.5;entryDx=0;entryDy=0;" parent="1" source="vF5ghhq5Yg48Jj5as7LA-8" target="JdYMFB5UEBQZJn8opRw6-74" edge="1">
          <mxGeometry relative="1" as="geometry" />
        </mxCell>
        <mxCell id="JdYMFB5UEBQZJn8opRw6-76" value="&lt;pre style=&quot;background-color: rgb(255 , 255 , 255) ; font-family: &amp;#34;jetbrains mono&amp;#34; , monospace ; font-size: 9.8pt&quot;&gt;saveToDBManager&lt;/pre&gt;" style="text;html=1;align=center;verticalAlign=middle;resizable=0;points=[];autosize=1;strokeColor=none;rotation=-25;" parent="1" vertex="1">
          <mxGeometry x="940" y="270" width="130" height="50" as="geometry" />
        </mxCell>
        <mxCell id="JdYMFB5UEBQZJn8opRw6-80" value="&lt;pre style=&quot;background-color: rgb(255 , 255 , 255) ; font-family: &amp;#34;jetbrains mono&amp;#34; , monospace ; font-size: 9.8pt&quot;&gt;&lt;br&gt;&lt;/pre&gt;" style="text;html=1;align=center;verticalAlign=middle;resizable=0;points=[];autosize=1;strokeColor=none;" parent="1" vertex="1">
          <mxGeometry x="410" y="310" width="20" height="50" as="geometry" />
        </mxCell>
        <mxCell id="JdYMFB5UEBQZJn8opRw6-81" value="" style="endArrow=none;dashed=1;html=1;" parent="1" edge="1">
          <mxGeometry width="50" height="50" relative="1" as="geometry">
            <mxPoint x="1230" y="570" as="sourcePoint" />
            <mxPoint x="1230" y="50" as="targetPoint" />
          </mxGeometry>
        </mxCell>
        <mxCell id="JdYMFB5UEBQZJn8opRw6-82" value="&lt;pre style=&quot;background-color: rgb(255 , 255 , 255) ; font-family: &amp;#34;jetbrains mono&amp;#34; , monospace ; font-size: 9.8pt&quot;&gt;receiveControlMsg&lt;/pre&gt;" style="text;html=1;align=center;verticalAlign=middle;resizable=0;points=[];autosize=1;strokeColor=none;rotation=21;" parent="1" vertex="1">
          <mxGeometry x="-260" y="240" width="130" height="50" as="geometry" />
        </mxCell>
        <mxCell id="JdYMFB5UEBQZJn8opRw6-84" value="&lt;pre style=&quot;background-color: rgb(255 , 255 , 255) ; font-family: &amp;#34;jetbrains mono&amp;#34; , monospace ; font-size: 9.8pt&quot;&gt;receiveControlMsg&lt;/pre&gt;" style="text;html=1;align=center;verticalAlign=middle;resizable=0;points=[];autosize=1;strokeColor=none;" parent="1" vertex="1">
          <mxGeometry x="-290" y="170" width="130" height="50" as="geometry" />
        </mxCell>
        <mxCell id="cipxp8mLIuf8oXB83tIg-3" style="edgeStyle=none;rounded=0;orthogonalLoop=1;jettySize=auto;html=1;entryX=0;entryY=0.5;entryDx=0;entryDy=0;" edge="1" parent="1" source="vF5ghhq5Yg48Jj5as7LA-8" target="cipxp8mLIuf8oXB83tIg-2">
          <mxGeometry relative="1" as="geometry" />
        </mxCell>
        <mxCell id="vF5ghhq5Yg48Jj5as7LA-8" value="&lt;pre style=&quot;background-color: rgb(255 , 255 , 255) ; font-family: &amp;#34;jetbrains mono&amp;#34; , monospace ; font-size: 9.8pt&quot;&gt;main_task&lt;/pre&gt;" style="ellipse;whiteSpace=wrap;html=1;" parent="1" vertex="1">
          <mxGeometry x="810" y="310" width="120" height="80" as="geometry" />
        </mxCell>
        <mxCell id="vF5ghhq5Yg48Jj5as7LA-9" value="&lt;pre style=&quot;background-color: rgb(255 , 255 , 255) ; font-family: &amp;#34;jetbrains mono&amp;#34; , monospace ; font-size: 9.8pt&quot;&gt;controldata_manager&lt;/pre&gt;" style="text;html=1;align=center;verticalAlign=middle;resizable=0;points=[];autosize=1;strokeColor=none;" parent="1" vertex="1">
          <mxGeometry x="675" y="100" width="150" height="50" as="geometry" />
        </mxCell>
        <mxCell id="JdYMFB5UEBQZJn8opRw6-96" style="edgeStyle=none;rounded=0;orthogonalLoop=1;jettySize=auto;html=1;" parent="1" source="JdYMFB5UEBQZJn8opRw6-95" target="vF5ghhq5Yg48Jj5as7LA-8" edge="1">
          <mxGeometry relative="1" as="geometry" />
        </mxCell>
        <mxCell id="JdYMFB5UEBQZJn8opRw6-97" value="" style="edgeStyle=none;rounded=0;orthogonalLoop=1;jettySize=auto;html=1;startArrow=classic;startFill=1;" parent="1" source="JdYMFB5UEBQZJn8opRw6-95" target="vF5ghhq5Yg48Jj5as7LA-8" edge="1">
          <mxGeometry relative="1" as="geometry" />
        </mxCell>
        <mxCell id="JdYMFB5UEBQZJn8opRw6-95" value="&lt;pre style=&quot;background-color: rgb(255 , 255 , 255) ; font-family: &amp;#34;jetbrains mono&amp;#34; , monospace ; font-size: 9.8pt&quot;&gt;&lt;span style=&quot;font-weight: bold&quot;&gt;g_serial_bean&lt;/span&gt;&lt;/pre&gt;" style="shape=process;whiteSpace=wrap;html=1;backgroundOutline=1;rounded=0;" parent="1" vertex="1">
          <mxGeometry x="810" y="180" width="120" height="60" as="geometry" />
        </mxCell>
        <mxCell id="rqrvZRN44UDiSSBPR1Fa-5" value="插入" style="text;html=1;align=center;verticalAlign=middle;resizable=0;points=[];autosize=1;strokeColor=none;" parent="1" vertex="1">
          <mxGeometry x="395" y="258" width="40" height="20" as="geometry" />
        </mxCell>
        <mxCell id="rqrvZRN44UDiSSBPR1Fa-6" value="插入" style="text;html=1;align=center;verticalAlign=middle;resizable=0;points=[];autosize=1;strokeColor=none;" parent="1" vertex="1">
          <mxGeometry x="390" y="330" width="40" height="20" as="geometry" />
        </mxCell>
        <mxCell id="rqrvZRN44UDiSSBPR1Fa-7" value="插入" style="text;html=1;align=center;verticalAlign=middle;resizable=0;points=[];autosize=1;strokeColor=none;" parent="1" vertex="1">
          <mxGeometry x="394" y="455" width="40" height="20" as="geometry" />
        </mxCell>
        <mxCell id="rqrvZRN44UDiSSBPR1Fa-9" style="rounded=0;orthogonalLoop=1;jettySize=auto;html=1;entryX=1;entryY=0.25;entryDx=0;entryDy=0;" parent="1" source="rqrvZRN44UDiSSBPR1Fa-8" target="JdYMFB5UEBQZJn8opRw6-95" edge="1">
          <mxGeometry relative="1" as="geometry" />
        </mxCell>
        <mxCell id="rqrvZRN44UDiSSBPR1Fa-8" value="k-v型数据结构，类似map，具有增删改查的能力，&lt;br&gt;串口上报的json首先都保存在这。" style="text;html=1;align=left;verticalAlign=middle;resizable=0;points=[];autosize=1;strokeColor=none;" parent="1" vertex="1">
          <mxGeometry x="960" y="180" width="290" height="30" as="geometry" />
        </mxCell>
        <mxCell id="cipxp8mLIuf8oXB83tIg-1" value="&lt;span&gt;&lt;b&gt;IService&lt;/b&gt;&lt;/span&gt;" style="text;html=1;align=center;verticalAlign=middle;resizable=0;points=[];autosize=1;strokeColor=none;" vertex="1" parent="1">
          <mxGeometry x="1270" y="50" width="60" height="20" as="geometry" />
        </mxCell>
        <mxCell id="cipxp8mLIuf8oXB83tIg-7" style="edgeStyle=none;rounded=0;orthogonalLoop=1;jettySize=auto;html=1;entryX=0;entryY=0.5;entryDx=0;entryDy=0;" edge="1" parent="1" source="cipxp8mLIuf8oXB83tIg-2" target="cipxp8mLIuf8oXB83tIg-5">
          <mxGeometry relative="1" as="geometry" />
        </mxCell>
        <mxCell id="cipxp8mLIuf8oXB83tIg-29" style="edgeStyle=none;rounded=0;orthogonalLoop=1;jettySize=auto;html=1;entryX=0;entryY=0.5;entryDx=0;entryDy=0;" edge="1" parent="1" source="cipxp8mLIuf8oXB83tIg-2" target="cipxp8mLIuf8oXB83tIg-9">
          <mxGeometry relative="1" as="geometry" />
        </mxCell>
        <mxCell id="cipxp8mLIuf8oXB83tIg-2" value="&lt;pre style=&quot;background-color: rgb(255, 255, 255); font-family: &amp;quot;jetbrains mono&amp;quot;, monospace; font-size: 9.8pt;&quot;&gt;&lt;span style=&quot;font-weight: bold&quot;&gt;g_cmd_list&lt;/span&gt;&lt;/pre&gt;" style="shape=process;whiteSpace=wrap;html=1;backgroundOutline=1;align=center;" vertex="1" parent="1">
          <mxGeometry x="1270" y="285" width="100" height="60" as="geometry" />
        </mxCell>
        <mxCell id="cipxp8mLIuf8oXB83tIg-28" style="edgeStyle=none;rounded=0;orthogonalLoop=1;jettySize=auto;html=1;entryX=0;entryY=0.5;entryDx=0;entryDy=0;" edge="1" parent="1" source="cipxp8mLIuf8oXB83tIg-5" target="cipxp8mLIuf8oXB83tIg-18">
          <mxGeometry relative="1" as="geometry" />
        </mxCell>
        <mxCell id="cipxp8mLIuf8oXB83tIg-5" value="heart_task" style="ellipse;whiteSpace=wrap;html=1;align=center;" vertex="1" parent="1">
          <mxGeometry x="1410" y="170" width="120" height="80" as="geometry" />
        </mxCell>
        <mxCell id="cipxp8mLIuf8oXB83tIg-17" style="edgeStyle=none;rounded=0;orthogonalLoop=1;jettySize=auto;html=1;entryX=0.013;entryY=0.585;entryDx=0;entryDy=0;entryPerimeter=0;" edge="1" parent="1" source="cipxp8mLIuf8oXB83tIg-8">
          <mxGeometry relative="1" as="geometry">
            <mxPoint x="1951.04" y="334.04999999999995" as="targetPoint" />
          </mxGeometry>
        </mxCell>
        <mxCell id="cipxp8mLIuf8oXB83tIg-8" value="write_task" style="ellipse;whiteSpace=wrap;html=1;align=center;" vertex="1" parent="1">
          <mxGeometry x="1720" y="275" width="120" height="80" as="geometry" />
        </mxCell>
        <mxCell id="cipxp8mLIuf8oXB83tIg-31" style="edgeStyle=none;rounded=0;orthogonalLoop=1;jettySize=auto;html=1;entryX=0;entryY=0.5;entryDx=0;entryDy=0;" edge="1" parent="1" source="cipxp8mLIuf8oXB83tIg-9" target="cipxp8mLIuf8oXB83tIg-18">
          <mxGeometry relative="1" as="geometry" />
        </mxCell>
        <mxCell id="cipxp8mLIuf8oXB83tIg-9" value="cmd_task" style="ellipse;whiteSpace=wrap;html=1;align=center;" vertex="1" parent="1">
          <mxGeometry x="1410" y="275" width="120" height="80" as="geometry" />
        </mxCell>
        <mxCell id="cipxp8mLIuf8oXB83tIg-24" style="edgeStyle=none;rounded=0;orthogonalLoop=1;jettySize=auto;html=1;" edge="1" parent="1" source="cipxp8mLIuf8oXB83tIg-11" target="cipxp8mLIuf8oXB83tIg-19">
          <mxGeometry relative="1" as="geometry" />
        </mxCell>
        <mxCell id="cipxp8mLIuf8oXB83tIg-11" value="&lt;span style=&quot;color: rgb(0 , 0 , 0) ; font-family: &amp;#34;helvetica&amp;#34; ; font-size: 12px ; font-style: normal ; font-weight: 400 ; letter-spacing: normal ; text-align: center ; text-indent: 0px ; text-transform: none ; word-spacing: 0px ; background-color: rgb(248 , 249 , 250) ; display: inline ; float: none&quot;&gt;read_task&lt;/span&gt;" style="ellipse;whiteSpace=wrap;html=1;align=center;" vertex="1" parent="1">
          <mxGeometry x="1720" y="390" width="120" height="80" as="geometry" />
        </mxCell>
        <mxCell id="cipxp8mLIuf8oXB83tIg-16" style="edgeStyle=none;rounded=0;orthogonalLoop=1;jettySize=auto;html=1;entryX=1;entryY=0.5;entryDx=0;entryDy=0;" edge="1" parent="1" target="cipxp8mLIuf8oXB83tIg-11">
          <mxGeometry relative="1" as="geometry">
            <mxPoint x="1950" y="348.8666666666667" as="sourcePoint" />
          </mxGeometry>
        </mxCell>
        <mxCell id="cipxp8mLIuf8oXB83tIg-25" style="edgeStyle=none;rounded=0;orthogonalLoop=1;jettySize=auto;html=1;" edge="1" parent="1" source="cipxp8mLIuf8oXB83tIg-18" target="cipxp8mLIuf8oXB83tIg-8">
          <mxGeometry relative="1" as="geometry" />
        </mxCell>
        <mxCell id="cipxp8mLIuf8oXB83tIg-18" value="&lt;span&gt;event_out队列&lt;/span&gt;" style="shape=process;whiteSpace=wrap;html=1;backgroundOutline=1;align=center;" vertex="1" parent="1">
          <mxGeometry x="1570" y="285" width="120" height="60" as="geometry" />
        </mxCell>
        <mxCell id="cipxp8mLIuf8oXB83tIg-19" value="&lt;span&gt;event_in队列&lt;/span&gt;" style="shape=process;whiteSpace=wrap;html=1;backgroundOutline=1;align=center;" vertex="1" parent="1">
          <mxGeometry x="1570" y="400" width="120" height="60" as="geometry" />
        </mxCell>
        <mxCell id="cipxp8mLIuf8oXB83tIg-34" value="&lt;span&gt;串口&lt;/span&gt;" style="whiteSpace=wrap;html=1;aspect=fixed;align=center;" vertex="1" parent="1">
          <mxGeometry x="1950" y="300" width="80" height="80" as="geometry" />
        </mxCell>
      </root>
    </mxGraphModel>
  </diagram>
</mxfile>
